#!OML:ASF H:\charlestonDancing\Project 1\Capture day 1\Session 1\femaleDancer.ASF
:FULLY-SPECIFIED
:DEGREES
412
root 0.142865 17.8285 -1.97859 184.981 -90.9211 -185.945
lowerback 13.0716 -0.463791 -1.55329
upperback 2.74899 -0.974299 -0.730865
thorax -4.42359 -0.51359 0.277645
lowerneck 7.0505 -13.6535 -9.24514
upperneck 0.170601 -18.8552 2.83185
head 0.0616243 -9.47469 2.59365
rclavicle -8.34896e-015 1.19271e-015
rhumerus -31.4471 2.98189 -79.9895
rradius 25.1609
rwrist 28.424
rhand -28.0519 -32.9991
rfingers 7.12502
rthumb -1.43601 -62.974
lclavicle -8.34896e-015 1.19271e-015
lhumerus -48.1818 19.6409 6.27908
lradius 148.839
lwrist 2.64042
lhand 4.72599 9.10019
lfingers 7.12502
lthumb 30.1086 36.6677
rfemur -29.1731 2.91429 17.1224
rtibia 34.5095
rfoot -29.4156 -0.942446
rtoes -25.8349
lfemur -8.44951 -0.964898 -28.1558
ltibia 32.227
lfoot -10.6273 -9.19489
ltoes -3.97944
413
root 0.138575 17.8401 -1.98491 187.674 -90.752 -188.471
lowerback 12.9577 -0.387077 -1.59976
upperback 2.58352 -0.873174 -0.74502
thorax -4.53579 -0.458784 0.271917
lowerneck 6.86224 -13.2686 -8.42139
upperneck 0.111663 -18.2718 2.45012
head -0.0777969 -9.17353 2.35914
rclavicle -4.96962e-017 -2.38542e-015
rhumerus -31.4516 3.8829 -80.3045
rradius 25.8432
rwrist 27.6116
rhand -28.1728 -32.8694
rfingers 7.12502
rthumb -1.5528 -62.8435
lclavicle -4.96962e-017 -2.38542e-015
lhumerus -48.1197 19.413 6.42057
lradius 148.858
lwrist 2.53998
lhand 5.12975 9.00935
lfingers 7.12502
lthumb 30.4937 36.5061
rfemur -29.2185 3.01884 17.2255
rtibia 34.9413
rfoot -29.3207 -0.601202
rtoes -25.7603
lfemur -8.52569 -0.921152 -28.0922
ltibia 32.0044
lfoot -10.5307 -9.15643
ltoes -3.7218
414
root 0.136216 17.8516 -1.99498 195.895 -90.506 -196.55
lowerback 12.8291 -0.236149 -1.63412
upperback 2.46266 -0.674106 -0.778069
thorax -4.59504 -0.357402 0.223124
lowerneck 6.84124 -12.7639 -7.7021
upperneck -0.121854 -17.5475 2.35096
head -0.2635 -8.80357 2.24676
rclavicle -3.57812e-015 -1.27222e-014
rhumerus -31.4215 4.48602 -80.5732
rradius 26.5405
rwrist 27.0138
rhand -28.2815 -32.7676
rfingers 7.12502
rthumb -1.65783 -62.7409
lclavicle -3.57812e-015 -1.27222e-014
lhumerus -47.8494 19.1984 6.61046
lradius 148.827
lwrist 2.3834
lhand 5.48345 8.93381
lfingers 7.12502
lthumb 30.831 36.3674
rfemur -29.2621 3.12349 17.3908
rtibia 35.4546
rfoot -29.1514 -0.438597
rtoes -25.6672
lfemur -8.611 -0.754862 -27.9708
ltibia 31.8115
lfoot -10.4645 -9.2522
ltoes -3.2012
415
root 0.132165 17.8536 -2.00622 230.746 -90.2843 -231.314
lowerback 12.7281 -0.0385893 -1.58934
upperback 2.37545 -0.403479 -0.798525
thorax -4.63547 -0.222703 0.131458
lowerneck 6.812 -12.1165 -7.11648
upperneck -0.383787 -16.6395 2.40373
head -0.434893 -8.34478 2.19667
rclavicle 2.98177e-016 4.77083e-015
rhumerus -31.3095 4.85015 -80.7342
rradius 27.1638
rwrist 26.5573
rhand -28.3213 -32.5955
rfingers 7.12502
rthumb -1.69619 -62.5685
lclavicle 2.98177e-016 4.77083e-015
lhumerus -47.4992 18.9257 6.85461
lradius 148.789
lwrist 2.31634
lhand 5.65262 8.84612
lfingers 7.12502
lthumb 30.9923 36.2491
rfemur -29.2559 3.1798 17.6408
rtibia 36.0162
rfoot -29.0029 -0.451472
rtoes -25.3152
lfemur -8.56664 -0.570578 -27.8375
ltibia 31.5724
lfoot -10.608 -9.17273
ltoes -4.36545
416
root 0.124697 17.849 -2.01452 280.613 -90.1049 -281.155
lowerback 12.6622 0.13668 -1.65129
upperback 2.30026 -0.181114 -0.870345
thorax -4.68114 -0.111151 0.0545292
lowerneck 6.65467 -11.3944 -6.27139
upperneck -0.63086 -15.6128 2.05547
head -0.633555 -7.82099 1.96929
rclavicle -1.04362e-015 -1.11319e-014
rhumerus -31.1497 5.21509 -80.8603
rradius 27.7455
rwrist 25.878
rhand -28.1848 -32.5486
rfingers 7.12502
rthumb -1.56439 -62.5227
lclavicle -1.04362e-015 -1.11319e-014
lhumerus -47.1203 18.6632 7.13446
lradius 148.704
lwrist 2.31013
lhand 5.67751 8.80688
lfingers 7.12502
lthumb 31.016 36.2053
rfemur -29.1723 3.06159 17.639
rtibia 36.5924
rfoot -28.8812 -0.0431707
rtoes -23.4206
lfemur -8.41237 -0.574908 -27.9673
ltibia 31.3233
lfoot -10.8231 -8.98912
ltoes -4.99007
417
root 0.11516 17.8495 -2.01938 211.326 -89.8578 -211.941
lowerback 12.6467 0.287471 -1.65996
upperback 2.29134 0.0100342 -0.995177
thorax -4.6844 -0.017912 -0.10261
lowerneck 6.25272 -10.5944 -5.56931
upperneck -0.718502 -14.4785 1.82911
head -0.711605 -7.2489 1.76809
rclavicle 5.96354e-016 -3.18055e-015
rhumerus -30.9234 5.27316 -80.9419
rradius 28.2651
rwrist 25.2502
rhand -28.1234 -32.5672
rfingers 7.12502
rthumb -1.50507 -62.5416
lclavicle 5.96354e-016 -3.18055e-015
lhumerus -46.5667 18.5703 7.46487
lradius 148.506
lwrist 2.20431
lhand 5.72895 8.76717
lfingers 7.12502
lthumb 31.065 36.1562
rfemur -28.9199 2.84186 17.5353
rtibia 37.1311
rfoot -29.3556 -0.403776
rtoes -23.9775
lfemur -8.15596 -0.693216 -28.1797
ltibia 31.0987
lfoot -11.014 -8.81262
ltoes -4.7273
418
root 0.106814 17.8472 -2.02477 214.192 -89.7623 -214.915
lowerback 12.6805 0.424615 -1.50223
upperback 2.29411 0.204207 -1.11388
thorax -4.70105 0.0742515 -0.347911
lowerneck 5.84329 -9.63443 -5.49389
upperneck -0.701731 -13.1649 2.21366
head -0.668925 -6.59828 1.84145
rclavicle 0 3.97569e-016
rhumerus -30.7296 5.16487 -81.0283
rradius 28.7423
rwrist 24.8112
rhand -28.1063 -32.6154
rfingers 7.12502
rthumb -1.48853 -62.5899
lclavicle 0 3.97569e-016
lhumerus -45.9267 18.5707 7.78432
lradius 148.252
lwrist 2.05238
lhand 5.76302 8.71267
lfingers 7.12502
lthumb 31.0975 36.0955
rfemur -28.6035 2.65023 17.5449
rtibia 37.6005
rfoot -29.651 -0.73969
rtoes -24.3929
lfemur -7.91203 -0.776596 -28.2604
ltibia 30.9421
lfoot -11.1557 -8.64743
ltoes -4.9157
